<?xml version="1.0" encoding="UTF-8"?>
<svg id="Layer_3" data-name="Layer 3" xmlns="http://www.w3.org/2000/svg" viewBox="0 0 60.55 60.29">
  <defs>
    <style>
      .cls-1 {
        fill: #fff34a;
      }

      .cls-2 {
        fill: none;
        stroke: #fff34a;
        stroke-miterlimit: 10;
        stroke-width: 3px;
      }
    </style>
  </defs>
  <g>
    <rect class="cls-1" x="23.43" y="46.6" width="19.26" height="8.2"/>
    <rect class="cls-2" x="23.43" y="46.6" width="19.26" height="8.2"/>
  </g>
  <g>
    <rect class="cls-1" x="18.84" y="3.33" width="4.6" height="15.94"/>
    <rect class="cls-2" x="18.84" y="3.33" width="4.6" height="15.94"/>
  </g>
  <g>
    <rect class="cls-1" x="41.87" y="3.33" width="5.42" height="15.94"/>
    <rect class="cls-2" x="41.87" y="3.33" width="5.42" height="15.94"/>
  </g>
  <g>
    <rect class="cls-1" x="3.75" y="21.44" width="5.81" height="9.66"/>
    <rect class="cls-2" x="3.75" y="21.44" width="5.81" height="9.66"/>
  </g>
  <g>
    <rect class="cls-1" x="9.57" y="31.1" width="6.76" height="7.29"/>
    <rect class="cls-2" x="9.57" y="31.1" width="6.76" height="7.29"/>
  </g>
  <g>
    <rect class="cls-1" x="16.32" y="38.4" width="7.07" height="8.2"/>
    <rect class="cls-2" x="16.32" y="38.4" width="7.07" height="8.2"/>
  </g>
  <g>
    <rect class="cls-1" x="42.7" y="38.4" width="6.02" height="8.2"/>
    <rect class="cls-2" x="42.7" y="38.4" width="6.02" height="8.2"/>
  </g>
  <g>
    <rect class="cls-1" x="48.71" y="30.37" width="5.03" height="8.02"/>
    <rect class="cls-2" x="48.71" y="30.37" width="5.03" height="8.02"/>
  </g>
  <g>
    <rect class="cls-1" x="52.74" y="20.35" width="5.71" height="10.03"/>
    <rect class="cls-2" x="52.74" y="20.35" width="5.71" height="10.03"/>
  </g>
</svg>