<?xml version="1.0" encoding="UTF-8"?>
<svg id="Layer_3" data-name="Layer 3" xmlns="http://www.w3.org/2000/svg" viewBox="0 0 180 129.49">
  <defs>
    <style>
      .cls-1 {
        fill: #fff34a;
      }
    </style>
  </defs>
  <g>
    <path class="cls-1" d="M5.21,33.52L1.5,15.53h2.46l1.68,8.69c.34,1.76.73,4.18.73,4.18h.03s.42-2.42.75-4.18l1.65-8.69h2.37l-3.71,17.99v11.31h-2.26v-11.31Z"/>
    <path class="cls-1" d="M10.68,30.24c0-8.77,2.09-15.29,5.38-15.29s5.36,6.52,5.36,15.29-2.07,15.25-5.36,15.25-5.38-6.48-5.38-15.25ZM19.11,30.24c0-5.86-1-10.41-3.04-10.41s-3.09,4.55-3.09,10.41,1.04,10.37,3.09,10.37,3.04-4.55,3.04-10.37Z"/>
    <path class="cls-1" d="M22.56,35.4V15.53h2.26v19.88c0,3.03.58,5.16,2.09,5.16s2.1-2.21,2.1-5.25V15.53h2.26v19.88c0,6.27-1.47,9.92-4.32,9.92s-4.4-3.57-4.4-9.92Z"/>
    <path class="cls-1" d="M32.89,15.53h5.11c2.15,0,3.59,3.28,3.59,8.16,0,3.44-.61,6.07-2.04,7.09v.12c1.03.78,1.56,2.34,1.7,5.9.16,4.14.09,7.3.48,7.75v.29h-2.17c-.28-.33-.31-3.61-.41-6.76-.09-3.2-.78-5-2.18-5h-1.82v11.76h-2.26V15.53ZM35.15,28.48h2.4c1.23,0,1.84-1.68,1.84-4.02s-.58-4.14-1.78-4.14h-2.46v8.16Z"/>
    <path class="cls-1" d="M118.92,40.9h-.03c-.76,3.36-1.81,4.55-3.13,4.55-1.68,0-2.99-1.6-3.91-4.26-.92-2.71-1.45-6.48-1.45-10.9,0-4.88.66-9.14,1.82-11.97.9-2.17,2.09-3.36,3.59-3.36,2.81,0,4.41,4.06,4.77,9.79h-2.21c-.25-2.83-1.08-4.88-2.51-4.88-2.1,0-3.15,4.59-3.15,10.41s1.2,10.37,3.12,10.37c1.73,0,2.87-3.4,2.87-6.64v-.16h-2.68v-4.59h4.69v15.57h-1.7l-.08-3.93Z"/>
    <path class="cls-1" d="M122.18,35.4V15.53h2.26v19.88c0,3.03.58,5.16,2.09,5.16s2.1-2.21,2.1-5.25V15.53h2.26v19.88c0,6.27-1.47,9.92-4.32,9.92s-4.4-3.57-4.4-9.92Z"/>
    <path class="cls-1" d="M132.53,15.53h2.26v29.3h-2.26V15.53Z"/>
    <path class="cls-1" d="M136.52,15.53h4.35c2.98,0,4.9,6.31,4.9,14.96,0,4.75-.61,8.93-1.78,11.52-.83,1.8-1.9,2.83-3.3,2.83h-4.16V15.53ZM140.53,39.71c2.12,0,2.95-3.4,2.95-9.22s-.97-9.88-2.88-9.88h-1.81v19.1h1.75Z"/>
    <path class="cls-1" d="M147,15.53h8.2v5h-5.94v6.56h5.21v4.88h-5.21v7.91h5.99v4.96h-8.25V15.53Z"/>
    <path class="cls-1" d="M158.69,15.53h8.96v5h-3.35v24.3h-2.26v-24.3h-3.35v-5Z"/>
    <path class="cls-1" d="M167.76,30.24c0-8.77,2.09-15.29,5.38-15.29s5.36,6.52,5.36,15.29-2.07,15.25-5.36,15.25-5.38-6.48-5.38-15.25ZM176.19,30.24c0-5.86-1-10.41-3.04-10.41s-3.09,4.55-3.09,10.41,1.04,10.37,3.09,10.37,3.04-4.55,3.04-10.37Z"/>
  </g>
  <g>
    <path class="cls-1" d="M1.63,84.34h13.23v7.38h-4.95v35.87h-3.34v-35.87H1.63v-7.38Z"/>
    <path class="cls-1" d="M16.54,84.34h7.55c3.18,0,5.29,4.84,5.29,12.04,0,5.08-.9,8.95-3.01,10.46v.18c1.52,1.15,2.3,3.45,2.51,8.71.23,6.11.14,10.77.71,11.43v.42h-3.2c-.41-.48-.46-5.32-.6-9.98-.14-4.72-1.15-7.38-3.22-7.38h-2.69v17.36h-3.34v-43.24ZM19.87,103.45h3.54c1.82,0,2.72-2.48,2.72-5.93s-.85-6.11-2.62-6.11h-3.64v12.04Z"/>
    <path class="cls-1" d="M36.16,84.34h3.45l5.8,43.24h-3.47l-1.1-9.19h-5.94l-1.08,9.19h-3.38l5.73-43.24ZM35.68,111.68h4.35l-1.47-12.46c-.28-2.3-.67-6.65-.67-6.65h-.05s-.41,4.35-.69,6.65l-1.47,12.46Z"/>
    <path class="cls-1" d="M46.8,84.34h6.42c4.39,0,7.23,9.31,7.23,22.08,0,7.02-.9,13.18-2.62,16.99-1.22,2.66-2.81,4.17-4.88,4.17h-6.14v-43.24ZM52.71,120.02c3.13,0,4.35-5.02,4.35-13.61s-1.43-14.58-4.26-14.58h-2.67v28.18h2.58Z"/>
    <path class="cls-1" d="M62.28,84.34h3.34v43.24h-3.34v-43.24Z"/>
    <path class="cls-1" d="M68.17,84.34h3.38l5.48,24.13c.53,2.36,1.15,6.05,1.15,6.05h.05s-.09-4.48-.09-7.5v-22.68h3.29v43.24h-3.22l-5.61-23.89c-.53-2.3-1.17-5.99-1.17-5.99h-.05s.09,4.54.09,7.56v22.32h-3.29v-43.24Z"/>
    <path class="cls-1" d="M95.9,121.78h-.05c-1.13,4.96-2.67,6.71-4.62,6.71-2.48,0-4.42-2.36-5.78-6.29-1.36-3.99-2.14-9.56-2.14-16.09,0-7.2.97-13.49,2.69-17.66,1.33-3.21,3.08-4.96,5.29-4.96,4.14,0,6.51,5.99,7.04,14.45h-3.27c-.37-4.17-1.59-7.2-3.71-7.2-3.11,0-4.65,6.77-4.65,15.36s1.77,15.3,4.6,15.3c2.55,0,4.23-5.02,4.23-9.8v-.24h-3.96v-6.77h6.93v22.98h-2.51l-.11-5.81Z"/>
    <path class="cls-1" d="M104,106.11c0-12.82,3.04-22.62,7.89-22.62,4.05,0,6.44,6.35,6.79,14.58h-3.31c-.3-4.35-1.54-7.2-3.47-7.2-3.04,0-4.49,6.65-4.49,15.24s1.75,15.18,4.51,15.18c1.96,0,3.34-3.08,3.54-7.62h3.27c-.09,3.81-.71,7.5-1.82,10.22-1.13,2.78-2.72,4.6-4.99,4.6-4.62,0-7.92-9.37-7.92-22.38Z"/>
    <path class="cls-1" d="M124.53,84.34h3.45l5.8,43.24h-3.47l-1.1-9.19h-5.94l-1.08,9.19h-3.38l5.73-43.24ZM124.05,111.68h4.35l-1.47-12.46c-.28-2.3-.67-6.65-.67-6.65h-.05s-.41,4.35-.69,6.65l-1.47,12.46Z"/>
    <path class="cls-1" d="M135.16,84.34h7.55c3.18,0,5.29,4.84,5.29,12.04,0,5.08-.9,8.95-3.01,10.46v.18c1.52,1.15,2.3,3.45,2.51,8.71.23,6.11.14,10.77.71,11.43v.42h-3.2c-.41-.48-.46-5.32-.6-9.98-.14-4.72-1.15-7.38-3.22-7.38h-2.69v17.36h-3.34v-43.24ZM138.5,103.45h3.54c1.82,0,2.72-2.48,2.72-5.93s-.85-6.11-2.62-6.11h-3.64v12.04Z"/>
    <path class="cls-1" d="M150.14,84.34h6.42c4.39,0,7.22,9.31,7.22,22.08,0,7.02-.9,13.18-2.62,16.99-1.22,2.66-2.81,4.17-4.88,4.17h-6.14v-43.24ZM156.05,120.02c3.13,0,4.35-5.02,4.35-13.61s-1.43-14.58-4.26-14.58h-2.67v28.18h2.58Z"/>
    <path class="cls-1" d="M164.87,114.22h3.27c.23,5.2,1.36,7.26,3.71,7.26,1.7,0,3.2-1.57,3.2-5.56,0-4.23-1.57-5.08-4.07-6.59-2.95-1.75-5.64-3.81-5.64-12.82,0-8.53,2.65-12.94,6.3-12.94s6.1,4.78,6.35,13.49h-3.2c-.18-4.35-1.47-6.53-3.18-6.53-1.79,0-2.97,2-2.97,5.08,0,3.51,1.15,4.54,3.59,5.93,3.38,1.94,6.14,4.05,6.14,13.37,0,8.77-2.69,13.67-6.4,13.67-4.46,0-7-5.2-7.11-14.33Z"/>
  </g>
</svg>