<?xml version="1.0" encoding="UTF-8"?>
<svg id="Layer_3" data-name="Layer 3" xmlns="http://www.w3.org/2000/svg" viewBox="0 0 342.87 42.66">
  <defs>
    <style>
      .cls-1 {
        fill: #ff00bf;
      }
    </style>
  </defs>
  <path class="cls-1" d="M5.6,24.75L1.89,6.75h2.46l1.68,8.69c.34,1.76.73,4.18.73,4.18h.03s.42-2.42.75-4.18l1.65-8.69h2.37l-3.71,17.99v11.31h-2.26v-11.31Z"/>
  <path class="cls-1" d="M11.07,21.47c0-8.77,2.09-15.29,5.38-15.29s5.36,6.52,5.36,15.29-2.07,15.25-5.36,15.25-5.38-6.48-5.38-15.25ZM19.5,21.47c0-5.86-1-10.41-3.04-10.41s-3.09,4.55-3.09,10.41,1.04,10.37,3.09,10.37,3.04-4.55,3.04-10.37Z"/>
  <path class="cls-1" d="M22.95,26.63V6.75h2.26v19.88c0,3.03.58,5.16,2.09,5.16s2.1-2.21,2.1-5.25V6.75h2.26v19.88c0,6.27-1.47,9.92-4.32,9.92s-4.4-3.57-4.4-9.92Z"/>
  <path class="cls-1" d="M33.28,6.75h5.11c2.15,0,3.59,3.28,3.59,8.16,0,3.44-.61,6.07-2.04,7.09v.12c1.03.78,1.56,2.34,1.7,5.9.16,4.14.09,7.3.48,7.75v.29h-2.17c-.28-.33-.31-3.61-.41-6.76-.09-3.2-.78-5-2.18-5h-1.82v11.76h-2.26V6.75ZM35.54,19.7h2.4c1.23,0,1.84-1.68,1.84-4.02s-.58-4.14-1.78-4.14h-2.46v8.16Z"/>
  <path class="cls-1" d="M68.63,32.39h-.03c-.76,3.36-1.81,4.55-3.13,4.55-1.68,0-2.99-1.6-3.91-4.26-.92-2.71-1.45-6.48-1.45-10.9,0-4.88.66-9.14,1.82-11.97.9-2.17,2.09-3.36,3.59-3.36,2.81,0,4.41,4.06,4.77,9.79h-2.21c-.25-2.83-1.08-4.88-2.51-4.88-2.1,0-3.15,4.59-3.15,10.41s1.2,10.37,3.12,10.37c1.73,0,2.87-3.4,2.87-6.64v-.16h-2.68v-4.59h4.69v15.57h-1.7l-.08-3.93Z"/>
  <path class="cls-1" d="M71.89,26.9V7.02h2.26v19.88c0,3.03.58,5.16,2.09,5.16s2.1-2.21,2.1-5.25V7.02h2.26v19.88c0,6.27-1.47,9.92-4.32,9.92s-4.4-3.57-4.4-9.92Z"/>
  <path class="cls-1" d="M82.24,7.02h2.26v29.3h-2.26V7.02Z"/>
  <path class="cls-1" d="M86.23,7.02h4.35c2.98,0,4.9,6.31,4.9,14.96,0,4.75-.61,8.93-1.78,11.52-.83,1.8-1.9,2.83-3.3,2.83h-4.16V7.02ZM90.24,31.2c2.12,0,2.95-3.4,2.95-9.22s-.97-9.88-2.88-9.88h-1.81v19.1h1.75Z"/>
  <path class="cls-1" d="M96.71,7.02h8.2v5h-5.94v6.56h5.21v4.88h-5.21v7.91h5.99v4.96h-8.25V7.02Z"/>
  <path class="cls-1" d="M108.54,7.23h8.96v5h-3.35v24.3h-2.26V12.23h-3.35v-5Z"/>
  <path class="cls-1" d="M117.61,21.94c0-8.77,2.09-15.29,5.38-15.29s5.36,6.52,5.36,15.29-2.07,15.25-5.36,15.25-5.38-6.48-5.38-15.25ZM126.05,21.94c0-5.86-1-10.41-3.04-10.41s-3.09,4.55-3.09,10.41,1.04,10.37,3.09,10.37,3.04-4.55,3.04-10.37Z"/>
  <path class="cls-1" d="M215.62,6.8h9.21v5.14h-3.44v24.97h-2.32V11.94h-3.44v-5.14Z"/>
  <path class="cls-1" d="M226,6.8h5.25c2.21,0,3.68,3.37,3.68,8.38,0,3.54-.62,6.23-2.1,7.28v.13c1.06.8,1.6,2.4,1.75,6.06.16,4.25.1,7.49.5,7.96v.29h-2.23c-.29-.34-.32-3.7-.42-6.95-.1-3.28-.8-5.14-2.24-5.14h-1.87v12.08h-2.32V6.8ZM228.32,20.11h2.47c1.27,0,1.89-1.73,1.89-4.13s-.59-4.25-1.83-4.25h-2.53v8.38Z"/>
  <path class="cls-1" d="M239.66,6.8h2.4l4.04,30.1h-2.42l-.77-6.4h-4.13l-.75,6.4h-2.35l3.99-30.1ZM239.33,25.83h3.03l-1.03-8.67c-.19-1.6-.46-4.63-.46-4.63h-.03s-.29,3.03-.48,4.63l-1.03,8.67Z"/>
  <path class="cls-1" d="M247.07,6.8h4.47c3.06,0,5.03,6.48,5.03,15.37,0,4.88-.62,9.18-1.83,11.83-.85,1.85-1.95,2.91-3.4,2.91h-4.28V6.8ZM251.18,31.64c2.18,0,3.03-3.49,3.03-9.47s-.99-10.15-2.96-10.15h-1.86v19.62h1.79Z"/>
  <path class="cls-1" d="M257.85,6.8h2.32v30.1h-2.32V6.8Z"/>
  <path class="cls-1" d="M261.95,6.8h2.35l3.81,16.8c.37,1.64.8,4.21.8,4.21h.03s-.06-3.12-.06-5.22V6.8h2.29v30.1h-2.24l-3.91-16.63c-.37-1.6-.82-4.17-.82-4.17h-.03s.06,3.16.06,5.26v15.54h-2.29V6.8Z"/>
  <path class="cls-1" d="M281.25,32.86h-.03c-.78,3.45-1.86,4.67-3.22,4.67-1.73,0-3.08-1.64-4.02-4.38-.94-2.78-1.49-6.65-1.49-11.2,0-5.01.67-9.39,1.87-12.29.93-2.23,2.15-3.45,3.68-3.45,2.88,0,4.53,4.17,4.9,10.06h-2.27c-.26-2.9-1.11-5.01-2.58-5.01-2.16,0-3.24,4.72-3.24,10.69s1.23,10.65,3.2,10.65c1.78,0,2.95-3.49,2.95-6.82v-.17h-2.75v-4.72h4.82v16h-1.75l-.08-4.04Z"/>
  <path class="cls-1" d="M289.21,22c0-8.93,2.11-15.75,5.49-15.75,2.82,0,4.49,4.42,4.73,10.15h-2.31c-.21-3.03-1.07-5.01-2.42-5.01-2.11,0-3.12,4.63-3.12,10.61s1.22,10.57,3.14,10.57c1.36,0,2.32-2.15,2.47-5.3h2.27c-.06,2.65-.5,5.22-1.27,7.11-.78,1.94-1.89,3.2-3.48,3.2-3.22,0-5.51-6.53-5.51-15.58Z"/>
  <path class="cls-1" d="M303.5,6.85h2.4l4.04,30.1h-2.42l-.77-6.4h-4.13l-.75,6.4h-2.35l3.99-30.1ZM303.16,25.88h3.03l-1.03-8.67c-.19-1.6-.46-4.63-.46-4.63h-.03s-.29,3.03-.48,4.63l-1.03,8.67Z"/>
  <path class="cls-1" d="M310.9,6.85h5.25c2.21,0,3.68,3.37,3.68,8.38,0,3.54-.62,6.23-2.1,7.28v.13c1.06.8,1.6,2.4,1.75,6.06.16,4.25.1,7.49.5,7.96v.29h-2.23c-.29-.34-.32-3.7-.42-6.95-.1-3.28-.8-5.14-2.24-5.14h-1.87v12.08h-2.32V6.85ZM313.22,20.15h2.47c1.27,0,1.89-1.73,1.89-4.13s-.59-4.25-1.83-4.25h-2.53v8.38Z"/>
  <path class="cls-1" d="M321.33,6.85h4.47c3.06,0,5.03,6.48,5.03,15.37,0,4.88-.62,9.18-1.83,11.83-.85,1.85-1.95,2.91-3.4,2.91h-4.28V6.85ZM325.44,31.69c2.18,0,3.03-3.49,3.03-9.47s-.99-10.15-2.96-10.15h-1.86v19.62h1.79Z"/>
  <path class="cls-1" d="M331.58,27.64h2.27c.16,3.62.95,5.05,2.58,5.05,1.19,0,2.23-1.09,2.23-3.87,0-2.95-1.09-3.54-2.84-4.59-2.05-1.22-3.92-2.65-3.92-8.93,0-5.94,1.84-9.01,4.39-9.01s4.24,3.33,4.42,9.39h-2.23c-.13-3.03-1.03-4.55-2.21-4.55-1.25,0-2.07,1.39-2.07,3.54,0,2.44.8,3.16,2.5,4.13,2.35,1.35,4.28,2.82,4.28,9.3,0,6.1-1.87,9.52-4.45,9.52-3.11,0-4.87-3.62-4.95-9.98Z"/>
</svg>